<svg xmlns="http://www.w3.org/2000/svg" viewBox="0 0 960 600" width="960" height="600" font-family="Inter, -apple-system, 'Segoe UI', 'Helvetica Neue', Arial, sans-serif">
<rect x="0" y="0" width="960" height="600" fill="#FCFCFA"/>
<line x1="76" y1="544" x2="884" y2="544" stroke="#ECEDF1" stroke-width="1" id="weft:p0:rise:0"/>
<line x1="76" y1="371.33" x2="884" y2="371.33" stroke="#ECEDF1" stroke-width="1" id="weft:p0:rise:100"/>
<line x1="76" y1="198.67" x2="884" y2="198.67" stroke="#ECEDF1" stroke-width="1" id="weft:p0:rise:200"/>
<line x1="76" y1="26" x2="884" y2="26" stroke="#ECEDF1" stroke-width="1" id="weft:p0:rise:300"/>
<rect x="82.4" y="336.8" width="20.87" height="207.2" rx="2.5" fill="#3E6DE0" stroke="none" stroke-width="0" opacity="1" id="glyph:g1"/>
<rect x="116.06" y="329.89" width="20.87" height="214.11" rx="2.5" fill="#3E6DE0" stroke="none" stroke-width="0" opacity="1" id="glyph:g2"/>
<rect x="149.73" y="317.81" width="20.87" height="226.19" rx="2.5" fill="#3E6DE0" stroke="none" stroke-width="0" opacity="1" id="glyph:g3"/>
<rect x="183.4" y="322.99" width="20.87" height="221.01" rx="2.5" fill="#3E6DE0" stroke="none" stroke-width="0" opacity="1" id="glyph:g4"/>
<rect x="217.06" y="307.45" width="20.87" height="236.55" rx="2.5" fill="#3E6DE0" stroke="none" stroke-width="0" opacity="1" id="glyph:g5"/>
<rect x="250.73" y="298.81" width="20.87" height="245.19" rx="2.5" fill="#3E6DE0" stroke="none" stroke-width="0" opacity="1" id="glyph:g6"/>
<rect x="284.4" y="286.73" width="20.87" height="257.27" rx="2.5" fill="#3E6DE0" stroke="none" stroke-width="0" opacity="1" id="glyph:g7"/>
<rect x="318.06" y="291.91" width="20.87" height="252.09" rx="2.5" fill="#3E6DE0" stroke="none" stroke-width="0" opacity="1" id="glyph:g8"/>
<rect x="351.73" y="271.19" width="20.87" height="272.81" rx="2.5" fill="#3E6DE0" stroke="none" stroke-width="0" opacity="1" id="glyph:g9"/>
<rect x="385.4" y="260.83" width="20.87" height="283.17" rx="2.5" fill="#3E6DE0" stroke="none" stroke-width="0" opacity="1" id="glyph:g10"/>
<rect x="419.06" y="248.74" width="20.87" height="295.26" rx="2.5" fill="#3E6DE0" stroke="none" stroke-width="0" opacity="1" id="glyph:g11"/>
<rect x="452.73" y="252.19" width="20.87" height="291.81" rx="2.5" fill="#3E6DE0" stroke="none" stroke-width="0" opacity="1" id="glyph:g12"/>
<rect x="486.4" y="205.57" width="20.87" height="338.43" rx="2.5" fill="#3E6DE0" stroke="none" stroke-width="0" opacity="1" id="glyph:g13"/>
<rect x="520.06" y="181.4" width="20.87" height="362.6" rx="2.5" fill="#3E6DE0" stroke="none" stroke-width="0" opacity="1" id="glyph:g14"/>
<rect x="553.73" y="157.23" width="20.87" height="386.77" rx="2.5" fill="#3E6DE0" stroke="none" stroke-width="0" opacity="1" id="glyph:g15"/>
<rect x="587.4" y="165.86" width="20.87" height="378.14" rx="2.5" fill="#3E6DE0" stroke="none" stroke-width="0" opacity="1" id="glyph:g16"/>
<rect x="621.06" y="136.51" width="20.87" height="407.49" rx="2.5" fill="#3E6DE0" stroke="none" stroke-width="0" opacity="1" id="glyph:g17"/>
<rect x="654.73" y="115.79" width="20.87" height="428.21" rx="2.5" fill="#3E6DE0" stroke="none" stroke-width="0" opacity="1" id="glyph:g18"/>
<rect x="688.4" y="91.61" width="20.87" height="452.39" rx="2.5" fill="#3E6DE0" stroke="none" stroke-width="0" opacity="1" id="glyph:g19"/>
<rect x="722.06" y="103.7" width="20.87" height="440.3" rx="2.5" fill="#3E6DE0" stroke="none" stroke-width="0" opacity="1" id="glyph:g20"/>
<rect x="755.73" y="76.07" width="20.87" height="467.93" rx="2.5" fill="#3E6DE0" stroke="none" stroke-width="0" opacity="1" id="glyph:g21"/>
<rect x="789.4" y="53.63" width="20.87" height="490.37" rx="2.5" fill="#3E6DE0" stroke="none" stroke-width="0" opacity="1" id="glyph:g22"/>
<rect x="823.06" y="62.26" width="20.87" height="481.74" rx="2.5" fill="#3E6DE0" stroke="none" stroke-width="0" opacity="1" id="glyph:g23"/>
<rect x="856.73" y="34.63" width="20.87" height="509.37" rx="2.5" fill="#3E6DE0" stroke="none" stroke-width="0" opacity="1" id="glyph:g24"/>
<circle cx="92.83" cy="508.28" r="3.6" opacity="1" fill="#E8590C" stroke="none" stroke-width="0" id="glyph:g25"/>
<circle cx="126.5" cy="500.44" r="3.6" opacity="1" fill="#E8590C" stroke="none" stroke-width="0" id="glyph:g26"/>
<circle cx="160.17" cy="484.77" r="3.6" opacity="1" fill="#E8590C" stroke="none" stroke-width="0" id="glyph:g27"/>
<circle cx="193.83" cy="492.61" r="3.6" opacity="1" fill="#E8590C" stroke="none" stroke-width="0" id="glyph:g28"/>
<circle cx="227.5" cy="469.1" r="3.6" opacity="1" fill="#E8590C" stroke="none" stroke-width="0" id="glyph:g29"/>
<circle cx="261.17" cy="453.44" r="3.6" opacity="1" fill="#E8590C" stroke="none" stroke-width="0" id="glyph:g30"/>
<circle cx="294.83" cy="437.77" r="3.6" opacity="1" fill="#E8590C" stroke="none" stroke-width="0" id="glyph:g31"/>
<circle cx="328.5" cy="448.21" r="3.6" opacity="1" fill="#E8590C" stroke="none" stroke-width="0" id="glyph:g32"/>
<circle cx="362.17" cy="419.49" r="3.6" opacity="1" fill="#E8590C" stroke="none" stroke-width="0" id="glyph:g33"/>
<circle cx="395.83" cy="403.82" r="3.6" opacity="1" fill="#E8590C" stroke="none" stroke-width="0" id="glyph:g34"/>
<circle cx="429.5" cy="390.76" r="3.6" opacity="1" fill="#E8590C" stroke="none" stroke-width="0" id="glyph:g35"/>
<circle cx="463.17" cy="398.6" r="3.6" opacity="1" fill="#E8590C" stroke="none" stroke-width="0" id="glyph:g36"/>
<circle cx="496.83" cy="330.7" r="3.6" opacity="1" fill="#E8590C" stroke="none" stroke-width="0" id="glyph:g37"/>
<circle cx="530.5" cy="296.75" r="3.6" opacity="1" fill="#E8590C" stroke="none" stroke-width="0" id="glyph:g38"/>
<circle cx="564.17" cy="254.97" r="3.6" opacity="1" fill="#E8590C" stroke="none" stroke-width="0" id="glyph:g39"/>
<circle cx="597.83" cy="273.25" r="3.6" opacity="1" fill="#E8590C" stroke="none" stroke-width="0" id="glyph:g40"/>
<circle cx="631.5" cy="226.24" r="3.6" opacity="1" fill="#E8590C" stroke="none" stroke-width="0" id="glyph:g41"/>
<circle cx="665.17" cy="187.07" r="3.6" opacity="1" fill="#E8590C" stroke="none" stroke-width="0" id="glyph:g42"/>
<circle cx="698.83" cy="150.51" r="3.6" opacity="1" fill="#E8590C" stroke="none" stroke-width="0" id="glyph:g43"/>
<circle cx="732.5" cy="174.01" r="3.6" opacity="1" fill="#E8590C" stroke="none" stroke-width="0" id="glyph:g44"/>
<circle cx="766.17" cy="127.01" r="3.6" opacity="1" fill="#E8590C" stroke="none" stroke-width="0" id="glyph:g45"/>
<circle cx="799.83" cy="90.45" r="3.6" opacity="1" fill="#E8590C" stroke="none" stroke-width="0" id="glyph:g46"/>
<circle cx="833.5" cy="108.73" r="3.6" opacity="1" fill="#E8590C" stroke="none" stroke-width="0" id="glyph:g47"/>
<circle cx="867.17" cy="61.72" r="3.6" opacity="1" fill="#E8590C" stroke="none" stroke-width="0" id="glyph:g48"/>
<path d="M92.8,508.3 C98.4,507.0 115.3,504.4 126.5,500.4 C137.7,496.5 148.9,486.1 160.2,484.8 C171.4,483.5 182.6,495.2 193.8,492.6 C205.1,490.0 216.3,475.6 227.5,469.1 C238.7,462.6 249.9,458.7 261.2,453.4 C272.4,448.2 283.6,438.6 294.8,437.8 C306.1,436.9 317.3,451.3 328.5,448.2 C339.7,445.2 350.9,426.9 362.2,419.5 C373.4,412.1 384.6,408.6 395.8,403.8 C407.1,399.0 418.3,391.6 429.5,390.8 C440.7,389.9 451.9,408.6 463.2,398.6 C474.4,388.6 485.6,347.7 496.8,330.7 C508.1,313.7 519.3,309.4 530.5,296.8 C541.7,284.1 552.9,258.9 564.2,255.0 C575.4,251.1 586.6,278.0 597.8,273.2 C609.1,268.5 620.3,240.6 631.5,226.2 C642.7,211.9 653.9,199.7 665.2,187.1 C676.4,174.5 687.6,152.7 698.8,150.5 C710.1,148.3 721.3,177.9 732.5,174.0 C743.7,170.1 754.9,140.9 766.2,127.0 C777.4,113.1 788.6,93.5 799.8,90.4 C811.1,87.4 822.3,113.5 833.5,108.7 C844.7,103.9 861.6,69.6 867.2,61.7" fill="none" stroke="#E8590C" stroke-width="2.2" stroke-linecap="round" stroke-linejoin="round" opacity="1" id="strand:s1"/>
<line x1="76" y1="544" x2="884" y2="544" stroke="#D6D9E0" stroke-width="1" id="rim:p0:south"/>
<text x="92.83" y="562" fill="#6B7280" font-size="10.5" text-anchor="middle" id="rimtick:p0:south:M01">M01</text>
<text x="160.17" y="562" fill="#6B7280" font-size="10.5" text-anchor="middle" id="rimtick:p0:south:M03">M03</text>
<text x="227.5" y="562" fill="#6B7280" font-size="10.5" text-anchor="middle" id="rimtick:p0:south:M05">M05</text>
<text x="294.83" y="562" fill="#6B7280" font-size="10.5" text-anchor="middle" id="rimtick:p0:south:M07">M07</text>
<text x="362.17" y="562" fill="#6B7280" font-size="10.5" text-anchor="middle" id="rimtick:p0:south:M09">M09</text>
<text x="429.5" y="562" fill="#6B7280" font-size="10.5" text-anchor="middle" id="rimtick:p0:south:M11">M11</text>
<text x="496.83" y="562" fill="#6B7280" font-size="10.5" text-anchor="middle" id="rimtick:p0:south:M13">M13</text>
<text x="564.17" y="562" fill="#6B7280" font-size="10.5" text-anchor="middle" id="rimtick:p0:south:M15">M15</text>
<text x="631.5" y="562" fill="#6B7280" font-size="10.5" text-anchor="middle" id="rimtick:p0:south:M17">M17</text>
<text x="698.83" y="562" fill="#6B7280" font-size="10.5" text-anchor="middle" id="rimtick:p0:south:M19">M19</text>
<text x="766.17" y="562" fill="#6B7280" font-size="10.5" text-anchor="middle" id="rimtick:p0:south:M21">M21</text>
<text x="833.5" y="562" fill="#6B7280" font-size="10.5" text-anchor="middle" id="rimtick:p0:south:M23">M23</text>
<line x1="76" y1="26" x2="76" y2="544" stroke="#D6D9E0" stroke-width="1" id="rim:p0:west"/>
<text x="68" y="547.5" fill="#6B7280" font-size="10.5" text-anchor="end" id="rimtick:p0:west:0">0</text>
<text x="68" y="374.83" fill="#6B7280" font-size="10.5" text-anchor="end" id="rimtick:p0:west:100">100</text>
<text x="68" y="202.17" fill="#6B7280" font-size="10.5" text-anchor="end" id="rimtick:p0:west:200">200</text>
<text x="68" y="29.5" fill="#6B7280" font-size="10.5" text-anchor="end" id="rimtick:p0:west:300">300</text>
<line x1="884" y1="26" x2="884" y2="544" stroke="#D6D9E0" stroke-width="1" id="rim:p0:east"/>
<text x="892" y="462.16" fill="#6B7280" font-size="10.5" text-anchor="start" id="rimtick:p0:east:10">10</text>
<text x="892" y="331.59" fill="#6B7280" font-size="10.5" text-anchor="start" id="rimtick:p0:east:15">15</text>
<text x="892" y="201.02" fill="#6B7280" font-size="10.5" text-anchor="start" id="rimtick:p0:east:20">20</text>
<text x="892" y="70.45" fill="#6B7280" font-size="10.5" text-anchor="start" id="rimtick:p0:east:25">25</text>
</svg>