<svg xmlns="http://www.w3.org/2000/svg" viewBox="0 0 960 600" width="960" height="600" font-family="Inter, -apple-system, 'Segoe UI', 'Helvetica Neue', Arial, sans-serif">
<rect x="0" y="0" width="960" height="600" fill="#FCFCFA"/>
<line x1="76" y1="544" x2="934" y2="544" stroke="#ECEDF1" stroke-width="1" id="weft:p0:rise:0"/>
<line x1="76" y1="382.67" x2="934" y2="382.67" stroke="#ECEDF1" stroke-width="1" id="weft:p0:rise:50"/>
<line x1="76" y1="221.33" x2="934" y2="221.33" stroke="#ECEDF1" stroke-width="1" id="weft:p0:rise:100"/>
<line x1="76" y1="60" x2="934" y2="60" stroke="#ECEDF1" stroke-width="1" id="weft:p0:rise:150"/>
<rect x="114.65" y="243.92" width="137.19" height="300.08" rx="2.5" fill="#3E6DE0" stroke="none" stroke-width="0" opacity="1" id="glyph:g1"/>
<rect x="329.15" y="185.84" width="137.19" height="358.16" rx="2.5" fill="#3E6DE0" stroke="none" stroke-width="0" opacity="1" id="glyph:g2"/>
<rect x="543.65" y="82.59" width="137.19" height="461.41" rx="2.5" fill="#3E6DE0" stroke="none" stroke-width="0" opacity="1" id="glyph:g3"/>
<rect x="758.15" y="101.95" width="137.19" height="442.05" rx="2.5" fill="#3E6DE0" stroke="none" stroke-width="0" opacity="1" id="glyph:g4"/>
<line x1="76" y1="544" x2="934" y2="544" stroke="#D6D9E0" stroke-width="1" id="rim:p0:south"/>
<text x="183.25" y="562" fill="#6B7280" font-size="10.5" text-anchor="middle" id="rimtick:p0:south:Q1">Q1</text>
<text x="397.75" y="562" fill="#6B7280" font-size="10.5" text-anchor="middle" id="rimtick:p0:south:Q2">Q2</text>
<text x="612.25" y="562" fill="#6B7280" font-size="10.5" text-anchor="middle" id="rimtick:p0:south:Q3">Q3</text>
<text x="826.75" y="562" fill="#6B7280" font-size="10.5" text-anchor="middle" id="rimtick:p0:south:Q4">Q4</text>
<line x1="76" y1="60" x2="76" y2="544" stroke="#D6D9E0" stroke-width="1" id="rim:p0:west"/>
<text x="68" y="547.5" fill="#6B7280" font-size="10.5" text-anchor="end" id="rimtick:p0:west:0">0</text>
<text x="68" y="386.17" fill="#6B7280" font-size="10.5" text-anchor="end" id="rimtick:p0:west:50">50</text>
<text x="68" y="224.83" fill="#6B7280" font-size="10.5" text-anchor="end" id="rimtick:p0:west:100">100</text>
<text x="68" y="63.5" fill="#6B7280" font-size="10.5" text-anchor="end" id="rimtick:p0:west:150">150</text>
<text x="30" y="40" fill="#171C26" font-size="17" font-weight="600" text-anchor="start" id="title:root">European revenue by quarter</text>
</svg>