<svg xmlns="http://www.w3.org/2000/svg" viewBox="0 0 960 600" width="960" height="600" font-family="Inter, -apple-system, 'Segoe UI', 'Helvetica Neue', Arial, sans-serif">
<rect x="0" y="0" width="960" height="600" fill="#FCFCFA"/>
<line x1="76" y1="544" x2="934" y2="544" stroke="#ECEDF1" stroke-width="1" id="weft:p0:rise:0"/>
<line x1="76" y1="428.5" x2="934" y2="428.5" stroke="#ECEDF1" stroke-width="1" id="weft:p0:rise:20"/>
<line x1="76" y1="313" x2="934" y2="313" stroke="#ECEDF1" stroke-width="1" id="weft:p0:rise:40"/>
<line x1="76" y1="197.5" x2="934" y2="197.5" stroke="#ECEDF1" stroke-width="1" id="weft:p0:rise:60"/>
<line x1="76" y1="82" x2="934" y2="82" stroke="#ECEDF1" stroke-width="1" id="weft:p0:rise:80"/>
<rect x="101.75" y="301.45" width="45.73" height="242.55" rx="2.5" fill="#3E6DE0" stroke="none" stroke-width="0" opacity="1" id="glyph:g1"/>
<rect x="160.38" y="370.75" width="45.73" height="173.25" rx="2.5" fill="#E8590C" stroke="none" stroke-width="0" opacity="1" id="glyph:g2"/>
<rect x="219.01" y="422.73" width="45.73" height="121.28" rx="2.5" fill="#2F9E64" stroke="none" stroke-width="0" opacity="1" id="glyph:g3"/>
<rect x="316.25" y="266.8" width="45.73" height="277.2" rx="2.5" fill="#3E6DE0" stroke="none" stroke-width="0" opacity="1" id="glyph:g4"/>
<rect x="374.88" y="324.55" width="45.73" height="219.45" rx="2.5" fill="#E8590C" stroke="none" stroke-width="0" opacity="1" id="glyph:g5"/>
<rect x="433.51" y="399.62" width="45.73" height="144.38" rx="2.5" fill="#2F9E64" stroke="none" stroke-width="0" opacity="1" id="glyph:g6"/>
<rect x="530.75" y="249.48" width="45.73" height="294.52" rx="2.5" fill="#3E6DE0" stroke="none" stroke-width="0" opacity="1" id="glyph:g7"/>
<rect x="589.38" y="174.4" width="45.73" height="369.6" rx="2.5" fill="#E8590C" stroke="none" stroke-width="0" opacity="1" id="glyph:g8"/>
<rect x="648.01" y="382.3" width="45.73" height="161.7" rx="2.5" fill="#2F9E64" stroke="none" stroke-width="0" opacity="1" id="glyph:g9"/>
<rect x="745.25" y="226.38" width="45.73" height="317.62" rx="2.5" fill="#3E6DE0" stroke="none" stroke-width="0" opacity="1" id="glyph:g10"/>
<rect x="803.88" y="261.02" width="45.73" height="282.98" rx="2.5" fill="#E8590C" stroke="none" stroke-width="0" opacity="1" id="glyph:g11"/>
<rect x="862.51" y="353.43" width="45.73" height="190.57" rx="2.5" fill="#2F9E64" stroke="none" stroke-width="0" opacity="1" id="glyph:g12"/>
<line x1="76" y1="544" x2="934" y2="544" stroke="#D6D9E0" stroke-width="1" id="rim:p0:south"/>
<text x="183.25" y="562" fill="#6B7280" font-size="10.5" text-anchor="middle" id="rimtick:p0:south:Q1">Q1</text>
<text x="397.75" y="562" fill="#6B7280" font-size="10.5" text-anchor="middle" id="rimtick:p0:south:Q2">Q2</text>
<text x="612.25" y="562" fill="#6B7280" font-size="10.5" text-anchor="middle" id="rimtick:p0:south:Q3">Q3</text>
<text x="826.75" y="562" fill="#6B7280" font-size="10.5" text-anchor="middle" id="rimtick:p0:south:Q4">Q4</text>
<line x1="76" y1="82" x2="76" y2="544" stroke="#D6D9E0" stroke-width="1" id="rim:p0:west"/>
<text x="68" y="547.5" fill="#6B7280" font-size="10.5" text-anchor="end" id="rimtick:p0:west:0">0</text>
<text x="68" y="432" fill="#6B7280" font-size="10.5" text-anchor="end" id="rimtick:p0:west:20">20</text>
<text x="68" y="316.5" fill="#6B7280" font-size="10.5" text-anchor="end" id="rimtick:p0:west:40">40</text>
<text x="68" y="201" fill="#6B7280" font-size="10.5" text-anchor="end" id="rimtick:p0:west:60">60</text>
<text x="68" y="85.5" fill="#6B7280" font-size="10.5" text-anchor="end" id="rimtick:p0:west:80">80</text>
<rect x="770.74" y="62" width="10" height="10" rx="3" fill="#3E6DE0" id="key:b1:tint:swatch:0"/>
<text x="784.74" y="71" fill="#3B4252" font-size="10.5" text-anchor="start" id="key:b1:tint:label:0">Aria</text>
<rect x="821.1" y="62" width="10" height="10" rx="3" fill="#E8590C" id="key:b1:tint:swatch:1"/>
<text x="835.1" y="71" fill="#3B4252" font-size="10.5" text-anchor="start" id="key:b1:tint:label:1">Breeze</text>
<rect x="883.64" y="62" width="10" height="10" rx="3" fill="#2F9E64" id="key:b1:tint:swatch:2"/>
<text x="897.64" y="71" fill="#3B4252" font-size="10.5" text-anchor="start" id="key:b1:tint:label:2">Cove</text>
<text x="30" y="40" fill="#171C26" font-size="17" font-weight="600" text-anchor="start" id="title:root">European revenue by quarter and product</text>
</svg>